<svg width="20" height="12" viewBox="0 0 20 12" fill="none" xmlns="http://www.w3.org/2000/svg">
<path fill-rule="evenodd" clip-rule="evenodd" d="M6.06846 0C5.08268 0 4.24358 0.390084 3.61101 1.05788C3.56652 1.05615 3.52155 1.05504 3.47661 1.05504C2.19014 1.05504 0.983405 1.80138 0.394469 2.96055C0.137179 3.46652 0.0417947 4.01119 0.0119566 4.56524C-0.00601242 4.89758 2.29252e-05 5.23321 0.00601218 5.56628L0.00601321 5.56633L0.00602834 5.56718C0.00899835 5.73248 0.0119566 5.89713 0.0119566 6.0604V10.8333H2.65289C2.65289 10.8333 2.65485 8.4823 2.65289 6.46082C2.65256 5.99639 2.65132 5.54925 2.65021 5.15181V5.15176C2.64807 4.38469 2.64645 3.80269 2.65289 3.63849C2.69976 2.46121 3.01759 1.69126 3.61076 1.06154C5.5768 1.06299 6.8497 2.42059 6.92058 4.58115C6.93671 5.07722 6.9421 7.73154 6.9421 7.73154V10.8329H9.58302V6.63979V6.63759C9.58302 6.52047 9.58302 6.40479 9.58318 6.29073V6.28901C9.58397 5.17043 9.58465 4.20471 9.50571 3.51962C9.26211 1.40894 7.98887 0 6.06846 0ZM19.994 5.68571C20 6.01838 20.006 6.35367 19.988 6.68564L19.9881 6.68552C19.9582 7.23947 19.8629 7.784 19.6056 8.28993C19.0166 9.44888 17.8097 10.1951 16.5232 10.1951C16.4783 10.1951 16.4333 10.194 16.3889 10.1923C15.7563 10.86 14.9171 11.25 13.9312 11.25C12.0107 11.25 10.7374 9.84132 10.4943 7.73102C10.4153 7.04567 10.416 6.07952 10.4168 4.96042L10.417 4.61142V0.419079L13.0561 0.416657V3.51743C13.0561 4.94294 13.0629 6.17375 13.0791 6.66974C13.15 8.82987 14.4229 10.1873 16.3891 10.1887C16.9822 9.55908 17.3001 8.78929 17.347 7.61219C17.3534 7.44804 17.3518 6.86626 17.3496 6.09943V6.09912L17.3496 6.08577C17.3485 5.69175 17.3473 5.24953 17.347 4.79038C17.345 2.76929 17.347 0.418684 17.347 0.418684H19.988V5.19076C19.988 5.35428 19.991 5.51918 19.994 5.68473L19.994 5.68571Z" fill="#820AD1"/>
</svg>
