<svg width="20" height="14" viewBox="0 0 20 14" fill="none" xmlns="http://www.w3.org/2000/svg">
<path d="M10 0.256088C4.57952 0.256088 0.182816 3.07284 0.182816 6.53892C0.182816 10.005 4.57952 13.0961 10 13.0961C15.4205 13.0961 19.8172 10.0141 19.8172 6.53892C19.8172 3.0637 15.4205 0.256088 10 0.256088Z" fill="#00BCFF"/>
<path d="M6.80075 4.60007C6.79161 4.60921 6.7002 4.70981 6.76418 4.79212C6.91958 4.98417 7.38576 5.09391 7.86108 4.99331C8.14444 4.9293 8.50093 4.64579 8.85742 4.36229C9.24133 4.06049 9.6161 3.7587 9.99088 3.63981C10.3931 3.51177 10.649 3.56665 10.8227 3.62152C11.0055 3.67639 11.2249 3.80442 11.5814 4.06049C12.2395 4.55434 14.8812 6.8681 15.3474 7.26135C15.713 7.09674 17.468 6.3834 19.6892 5.8987C19.4973 4.70981 18.7843 3.58494 17.6874 2.69784C16.1609 3.33801 14.1773 3.72212 12.3492 2.83502C12.3401 2.83502 11.3528 2.36861 10.3839 2.3869C8.93969 2.42348 8.30897 3.04536 7.65084 3.71297L6.80075 4.60007Z" fill="white"/>
<path d="M15.2285 7.5083C15.2011 7.48086 12.1206 4.78299 11.4168 4.26171C11.0146 3.95991 10.7861 3.87761 10.5484 3.85017C10.4296 3.83188 10.2559 3.85932 10.1371 3.88675C9.80801 3.9782 9.38753 4.26171 9.01276 4.55436C8.61971 4.8653 8.25408 5.15795 7.91587 5.23111C7.47711 5.33171 6.94695 5.21282 6.70015 5.04821C6.5996 4.98419 6.53561 4.90188 6.49905 4.82872C6.40764 4.61838 6.57217 4.45376 6.5996 4.42632L7.44969 3.50265C7.55024 3.40205 7.65079 3.30145 7.75133 3.21C7.47711 3.24658 7.22117 3.31974 6.97437 3.38376C6.66358 3.46607 6.37108 3.54838 6.06943 3.54838C5.94146 3.54838 5.27419 3.43863 5.14622 3.40205C4.37839 3.19171 3.50088 2.99051 2.49539 2.51495C1.28881 3.41119 0.502705 4.51778 0.265045 5.76154C0.43872 5.80727 0.895758 5.90787 1.01459 5.9353C3.74768 6.54804 4.59777 7.16992 4.75316 7.29796C4.9177 7.11505 5.1645 6.99616 5.42958 6.99616C5.73122 6.99616 6.00545 7.15163 6.16998 7.38026C6.32537 7.25223 6.54475 7.15163 6.81898 7.15163C6.94695 7.15163 7.07492 7.17906 7.21203 7.21565C7.52281 7.32539 7.67821 7.52659 7.76047 7.7095C7.86102 7.66377 7.98899 7.62718 8.14439 7.62718C8.29064 7.62718 8.44603 7.66377 8.60143 7.72778C9.10417 7.94727 9.18643 8.44112 9.14073 8.81608C9.17729 8.81608 9.21386 8.80693 9.25042 8.80693C9.84457 8.80693 10.3382 9.29163 10.3382 9.89523C10.3382 10.0781 10.2925 10.2519 10.2102 10.4074C10.3747 10.4988 10.7861 10.7092 11.1517 10.6634C11.4442 10.6269 11.5539 10.5263 11.5905 10.4714C11.6179 10.4348 11.6453 10.3891 11.6179 10.3525L10.8501 9.49283C10.8501 9.49283 10.7221 9.37394 10.7678 9.32821C10.8135 9.28249 10.8866 9.34651 10.9415 9.39223C11.3345 9.72146 11.8098 10.2153 11.8098 10.2153C11.819 10.2245 11.8464 10.2793 12.0292 10.3159C12.1846 10.3433 12.4497 10.3251 12.6416 10.1696C12.6873 10.133 12.7331 10.0781 12.7788 10.0324L12.7696 10.0416C12.9707 9.78548 12.7513 9.52941 12.7513 9.52941L11.8464 8.51428C11.8464 8.51428 11.7184 8.39539 11.7641 8.34967C11.8007 8.30394 11.883 8.36796 11.9469 8.41368C12.2303 8.65146 12.6325 9.05386 13.0256 9.43796C13.0987 9.49283 13.4369 9.70317 13.8939 9.41052C14.1682 9.22762 14.223 9.00813 14.2139 8.84351C14.1956 8.62403 14.0219 8.46855 14.0219 8.46855L12.7879 7.23394C12.7879 7.23394 12.6599 7.12419 12.7056 7.06932C12.7422 7.0236 12.8245 7.08761 12.8793 7.13334C13.2724 7.46257 14.3327 8.43197 14.3327 8.43197C14.351 8.44112 14.7166 8.70633 15.1645 8.41368C15.329 8.31308 15.4296 8.15762 15.4387 7.97471C15.4479 7.6912 15.2285 7.5083 15.2285 7.5083Z" fill="white"/>
<path d="M9.25962 9.07218C9.06766 9.07218 8.85742 9.18192 8.83 9.16363C8.81172 9.15448 8.83914 9.08132 8.85742 9.03559C8.8757 8.98987 9.1225 8.23995 8.51921 7.97474C8.05303 7.77354 7.76053 8.00217 7.66912 8.10277C7.6417 8.13021 7.63256 8.13021 7.63256 8.09363C7.62342 7.95645 7.55943 7.59063 7.15724 7.4626C6.58137 7.28884 6.2066 7.69123 6.11519 7.83756C6.06949 7.50833 5.79526 7.25226 5.45706 7.25226C5.08228 7.25226 4.78978 7.55405 4.78064 7.91987C4.78064 8.29482 5.08228 8.58747 5.44792 8.58747C5.63073 8.58747 5.79526 8.51431 5.91409 8.40457C5.91409 8.40457 5.92324 8.41371 5.91409 8.42286C5.88667 8.58747 5.83183 9.19106 6.46254 9.43799C6.71848 9.53859 6.92872 9.46542 7.11154 9.33739C7.16638 9.30081 7.17552 9.3191 7.16638 9.36482C7.13896 9.52029 7.17552 9.84953 7.6417 10.0416C7.99819 10.1879 8.20843 10.0416 8.34554 9.91354C8.40952 9.85867 8.41866 9.86782 8.42781 9.95013C8.44609 10.3982 8.82086 10.7549 9.26876 10.7549C9.73494 10.7549 10.1097 10.38 10.1097 9.91354C10.1006 9.45628 9.7258 9.08132 9.25962 9.07218Z" fill="white"/>
<path d="M10 0C4.47898 0 0 2.93565 0 6.54805C0 6.6395 0 6.89557 0 6.93215C0 10.7549 3.91225 13.8552 10 13.8552C16.0878 13.8552 20 10.7549 20 6.93215V6.54805C20 2.93565 15.521 0 10 0ZM19.543 5.81642C17.3675 6.30112 15.7495 7.00531 15.3382 7.17907C14.3876 6.34685 12.1938 4.44462 11.5996 3.9965C11.2614 3.74044 11.0329 3.60326 10.8227 3.54838C10.7313 3.52095 10.6033 3.49351 10.4388 3.49351C10.2834 3.49351 10.128 3.52095 9.9543 3.57582C9.57038 3.69471 9.18647 4.00565 8.82084 4.2983V4.30744C8.47349 4.5818 8.117 4.86531 7.85192 4.92932C7.73309 4.95676 7.61426 4.96591 7.49543 4.96591C7.19378 4.96591 6.91956 4.87445 6.81901 4.74642C6.80073 4.72813 6.80987 4.69155 6.85558 4.63668L6.86472 4.62753L7.69653 3.73129C8.35466 3.07283 8.96709 2.46009 10.3931 2.42351C10.4205 2.42351 10.4388 2.42351 10.4662 2.42351C11.3528 2.42351 12.2395 2.81676 12.3309 2.86249C13.1627 3.26488 14.0128 3.47522 14.8812 3.47522C15.777 3.47522 16.7002 3.25573 17.6691 2.80761C18.6654 3.66727 19.3419 4.70069 19.543 5.81642ZM10 0.384104C12.9342 0.384104 15.5576 1.22547 17.3218 2.55154C16.4717 2.91736 15.6581 3.10941 14.872 3.10941C14.0676 3.10941 13.2633 2.91736 12.4863 2.53325C12.4497 2.51496 11.4717 2.04855 10.4479 2.04855C10.4205 2.04855 10.3931 2.04855 10.3656 2.04855C9.16819 2.07599 8.50091 2.49667 8.04388 2.87163C7.60512 2.88077 7.22121 2.99052 6.883 3.08197C6.58135 3.16428 6.32541 3.23744 6.06947 3.23744C5.96892 3.23744 5.77697 3.2283 5.75868 3.2283C5.46618 3.21915 4.00366 2.86248 2.83364 2.42351C4.60695 1.1706 7.15722 0.384104 10 0.384104ZM2.50457 2.67958C3.72029 3.18257 5.2011 3.56667 5.67642 3.59411C5.80439 3.60326 5.9415 3.62155 6.08775 3.62155C6.39854 3.62155 6.70932 3.53009 7.01097 3.44779C7.18464 3.40206 7.38574 3.34719 7.58684 3.30146C7.53199 3.35633 7.47715 3.4112 7.4223 3.46607L6.57221 4.38061C6.50823 4.44462 6.36197 4.62753 6.45338 4.84702C6.48994 4.93847 6.57221 5.02078 6.67276 5.09394C6.87386 5.23112 7.23949 5.32258 7.56856 5.32258C7.69653 5.32258 7.81536 5.31343 7.92505 5.28599C8.28154 5.20369 8.65631 4.91104 9.04936 4.59095C9.36015 4.34403 9.80804 4.02394 10.1554 3.93249C10.2559 3.90505 10.3656 3.88676 10.4662 3.88676C10.4936 3.88676 10.521 3.88676 10.5484 3.89591C10.777 3.92334 10.9963 4.00565 11.3803 4.2983C12.075 4.81958 15.1554 7.51745 15.1828 7.54489C15.1828 7.54489 15.3839 7.71865 15.3656 8.00215C15.3565 8.15762 15.2742 8.2948 15.1188 8.3954C14.9909 8.47771 14.8537 8.52344 14.7166 8.52344C14.5064 8.52344 14.3693 8.42284 14.3601 8.42284C14.351 8.41369 13.2907 7.44429 12.9068 7.11506C12.8428 7.06019 12.7879 7.01446 12.7239 7.01446C12.6874 7.01446 12.66 7.03275 12.6417 7.05104C12.5777 7.1242 12.6508 7.23395 12.7331 7.29796L13.9671 8.54172C13.9671 8.54172 14.1225 8.68805 14.1408 8.8801C14.1499 9.0813 14.0494 9.25506 13.8483 9.39224C13.702 9.49284 13.5558 9.53857 13.4095 9.53857C13.2176 9.53857 13.0896 9.45626 13.0622 9.42882L12.8885 9.25506C12.5686 8.93497 12.2303 8.60574 11.9835 8.40454C11.9196 8.35882 11.8647 8.31309 11.8007 8.31309C11.7733 8.31309 11.7459 8.32224 11.7185 8.34968C11.691 8.37711 11.6728 8.43198 11.7367 8.53258C11.7642 8.56916 11.8007 8.60574 11.8007 8.60574L12.6965 9.62087C12.7057 9.63002 12.8793 9.84036 12.7148 10.0507L12.6782 10.0873C12.6508 10.1147 12.6234 10.1422 12.596 10.1696C12.4406 10.2976 12.2395 10.3068 12.1572 10.3068C12.1115 10.3068 12.075 10.3068 12.0384 10.2976C11.947 10.2793 11.8921 10.261 11.8647 10.2245L11.8556 10.2153C11.8099 10.1604 11.3528 9.70318 10.9781 9.39224C10.9324 9.34651 10.8684 9.30079 10.8044 9.30079C10.777 9.30079 10.7495 9.30993 10.7221 9.33737C10.649 9.41968 10.7587 9.53857 10.8044 9.58429L11.5722 10.4348C11.5722 10.444 11.5631 10.4622 11.5448 10.4897C11.5174 10.5263 11.426 10.6177 11.1426 10.6543C11.106 10.6543 11.0786 10.6634 11.042 10.6634C10.7587 10.6634 10.4479 10.5263 10.2925 10.444C10.3656 10.2885 10.4022 10.1239 10.4022 9.95925C10.4022 9.32822 9.89031 8.81608 9.2596 8.81608C9.25046 8.81608 9.23218 8.81608 9.22303 8.81608C9.24132 8.52343 9.20475 7.98386 8.63803 7.73694C8.47349 7.66377 8.3181 7.62719 8.16271 7.62719C8.04388 7.62719 7.92505 7.64548 7.81536 7.69121C7.69653 7.46258 7.50457 7.29796 7.25777 7.21565C7.12066 7.16993 6.98355 7.14249 6.84644 7.14249C6.60878 7.14249 6.39854 7.21566 6.20658 7.34369C6.02377 7.11506 5.74954 6.97788 5.45704 6.97788C5.2011 6.97788 4.9543 7.07847 4.77148 7.26138C4.53382 7.07847 3.58318 6.47488 1.05119 5.89873C0.932358 5.87129 0.658135 5.78899 0.484461 5.74326C0.703839 4.5818 1.42596 3.53924 2.50457 2.67958ZM7.20293 9.29164L7.1755 9.26421H7.14808C7.1298 9.26421 7.10238 9.27335 7.07495 9.29164C6.94698 9.38309 6.81901 9.42882 6.70018 9.42882C6.62706 9.42882 6.56307 9.41053 6.48995 9.39224C5.90494 9.16361 5.95064 8.60574 5.97806 8.44113C5.97806 8.40455 5.97806 8.37711 5.95064 8.35882L5.90494 8.32224L5.86837 8.35882C5.74954 8.46856 5.60329 8.53258 5.4479 8.53258C5.10969 8.53258 4.83547 8.25822 4.83547 7.91984C4.83547 7.58147 5.10969 7.30711 5.4479 7.30711C5.74954 7.30711 6.01463 7.53574 6.05119 7.83754L6.06947 8.00215L6.16088 7.86497C6.17002 7.84668 6.41682 7.47172 6.87386 7.47172C6.95612 7.47172 7.04753 7.49001 7.13894 7.51745C7.50457 7.62719 7.55942 7.95642 7.56856 8.0936C7.5777 8.17591 7.63254 8.17591 7.64168 8.17591C7.6691 8.17591 7.69653 8.15762 7.71481 8.13933C7.77879 8.06617 7.93419 7.94728 8.16271 7.94728C8.2724 7.94728 8.38208 7.97472 8.50091 8.02044C9.07678 8.26737 8.8117 8.99899 8.8117 9.00814C8.766 9.12702 8.75686 9.1819 8.80256 9.20933L8.82084 9.21848H8.83912C8.86654 9.21848 8.89397 9.20933 8.94881 9.19104C9.03108 9.16361 9.14077 9.12703 9.2596 9.12703C9.68921 9.13617 10.0457 9.48369 10.0457 9.91352C10.0457 10.3434 9.68921 10.7 9.2596 10.7C8.83912 10.7 8.49177 10.3708 8.47349 9.95011C8.47349 9.91352 8.46435 9.82207 8.39122 9.82207C8.35466 9.82207 8.32724 9.84036 8.29982 9.86779C8.20841 9.9501 8.08958 10.0416 7.9159 10.0416C7.83364 10.0416 7.75137 10.0233 7.65996 9.98669C7.21207 9.80378 7.20293 9.50198 7.22121 9.37395C7.22121 9.34651 7.23035 9.31908 7.20293 9.29164ZM10 12.6937C4.68921 12.6937 0.383912 9.94096 0.383912 6.5389C0.383912 6.40172 0.393053 6.26454 0.411335 6.12736C0.457038 6.13651 0.877514 6.2371 0.959781 6.2554C3.54662 6.83155 4.40585 7.426 4.5521 7.54489C4.5064 7.66377 4.47898 7.79181 4.47898 7.91984C4.47898 8.45942 4.91773 8.88925 5.4479 8.88925C5.51188 8.88925 5.56673 8.8801 5.63071 8.87096C5.71298 9.2642 5.96892 9.566 6.36197 9.72147C6.4808 9.7672 6.59049 9.78549 6.70932 9.78549C6.78245 9.78549 6.85558 9.77634 6.9287 9.75805C7.00183 9.94096 7.16636 10.1696 7.53199 10.3251C7.65996 10.3799 7.78793 10.4074 7.9159 10.4074C8.01645 10.4074 8.117 10.3891 8.20841 10.3525C8.38208 10.7823 8.80256 11.0658 9.26874 11.0658C9.57952 11.0658 9.87203 10.9378 10.0914 10.7183C10.2742 10.8189 10.6673 11.011 11.0603 11.011C11.1152 11.011 11.1609 11.011 11.2066 11.0018C11.5996 10.9561 11.7824 10.8006 11.8647 10.6817C11.883 10.6634 11.8921 10.636 11.9013 10.6177C11.9927 10.6451 12.0932 10.6634 12.2121 10.6634C12.4223 10.6634 12.6325 10.5903 12.8428 10.444C13.0439 10.2976 13.1901 10.0873 13.2084 9.90438V9.89523C13.2815 9.91352 13.3455 9.91352 13.4186 9.91352C13.638 9.91352 13.8574 9.84951 14.0585 9.71233C14.4607 9.44711 14.5247 9.10874 14.5247 8.88925C14.5978 8.90754 14.6618 8.90754 14.7349 8.90754C14.9452 8.90754 15.1463 8.84352 15.3382 8.72463C15.585 8.56916 15.7313 8.32224 15.7587 8.03873C15.777 7.84668 15.7221 7.65463 15.6216 7.49001C16.2888 7.20651 17.8154 6.64865 19.6069 6.23711C19.6161 6.33771 19.6161 6.4383 19.6161 6.54805C19.6161 9.94096 15.3108 12.6937 10 12.6937Z" fill="#0A0080"/>
</svg>
